<?xml version="1.0" encoding="UTF-8"?>
<svg width="47px" height="23px" viewBox="0 0 47 23" version="1.1" xmlns="http://www.w3.org/2000/svg" xmlns:xlink="http://www.w3.org/1999/xlink">
    <!-- Generator: Sketch 56.3 (81716) - https://sketch.com -->
    <title>CHY备份</title>
    <desc>Created with Sketch.</desc>
    <defs>
        <linearGradient x1="0%" y1="50%" x2="100%" y2="50%" id="linearGradient-1">
            <stop stop-color="#5BE1F5" offset="0%"></stop>
            <stop stop-color="#4DB5FC" offset="100%"></stop>
        </linearGradient>
        <linearGradient x1="0%" y1="40.4716643%" x2="100%" y2="40.4716643%" id="linearGradient-2">
            <stop stop-color="#5CE0F6" offset="0%"></stop>
            <stop stop-color="#4EB1FD" offset="100%"></stop>
        </linearGradient>
        <path d="M682.389897,34.22 C682.137897,35.12 681.651897,35.984 681.003897,36.65 C680.139897,37.532 678.969897,38.072 677.745897,38.18 C676.557897,38.288 675.117897,38.09 674.055897,37.55 C673.029897,37.028 672.237897,36.182 671.733897,35.156 C670.887897,33.446 670.851897,31.304 671.229897,29.396 C671.445897,28.316 672.093897,27.236 672.975897,26.426 C673.857897,25.616 674.757897,25.202 675.909897,25.004 C677.277897,24.788 678.699897,24.968 679.887897,25.598 C680.877897,26.12 681.831897,27.11 682.317897,28.208 C682.425897,28.46 682.353897,28.694 682.227897,28.892 C682.047897,29.144 681.723897,29.342 681.417897,29.432 C681.165897,28.55 680.535897,27.632 679.725897,27.002 C678.861897,26.318 677.835897,26.084 676.683897,26.138 C675.657897,26.174 674.667897,26.57 673.911897,27.218 C673.155897,27.866 672.705897,28.748 672.471897,29.738 C672.111897,31.268 672.291897,32.978 672.813897,34.364 C673.119897,35.21 673.767897,35.876 674.541897,36.326 C675.423897,36.83 676.449897,37.046 677.457897,36.956 C678.483897,36.866 679.419897,36.452 680.121897,35.678 C680.805897,34.94 681.201897,33.95 681.381897,32.996 C681.723897,33.086 682.011897,33.23 682.209897,33.428 C682.389897,33.626 682.479897,33.878 682.389897,34.22 Z M695.981897,37.226 C695.981897,37.55 695.765897,37.766 695.513897,37.892 C695.243897,38.036 694.901897,38.054 694.667897,38.018 C694.793897,35.84 694.793897,33.752 694.667897,31.592 C692.165897,31.52 689.609897,31.61 687.305897,32.168 C687.269897,33.914 687.233897,36.236 687.269897,38.018 C686.999897,38.018 686.639897,37.946 686.369897,37.784 C686.153897,37.64 685.973897,37.442 685.973897,37.172 C685.901897,33.392 686.225897,28.946 686.585897,25.076 C686.873897,25.094 687.449897,25.094 687.827897,25.094 C687.647897,27.038 687.485897,29.126 687.377897,30.98 C689.645897,30.512 692.111897,30.404 694.577897,30.404 C694.469897,28.73 694.307897,26.894 694.073897,25.076 L695.315897,25.076 C695.765897,28.748 696.071897,33.194 695.981897,37.226 Z M710.455897,25.796 C708.547897,27.794 706.729897,29.882 705.523897,32.204 C705.523897,33.734 705.541897,36.56 705.541897,37.982 C705.109897,38 704.587897,38 704.245897,38.018 C704.245897,36.416 704.227897,33.77 704.227897,32.258 C703.129897,29.864 701.329897,27.74 699.385897,25.76 C699.673897,25.58 700.213897,25.202 700.519897,25.004 C702.211897,26.786 703.813897,28.64 704.857897,30.71 C706.135897,28.676 707.647897,26.75 709.411897,24.932 C709.753897,25.202 710.149897,25.544 710.455897,25.796 Z" id="path-3"></path>
        <filter x="-19.0%" y="-41.4%" width="136.7%" height="212.8%" filterUnits="objectBoundingBox" id="filter-4">
            <feMorphology radius="0.5" operator="dilate" in="SourceAlpha" result="shadowSpreadOuter1"></feMorphology>
            <feOffset dx="0" dy="2" in="shadowSpreadOuter1" result="shadowOffsetOuter1"></feOffset>
            <feGaussianBlur stdDeviation="2" in="shadowOffsetOuter1" result="shadowBlurOuter1"></feGaussianBlur>
            <feComposite in="shadowBlurOuter1" in2="SourceAlpha" operator="out" result="shadowBlurOuter1"></feComposite>
            <feColorMatrix values="0 0 0 0 0   0 0 0 0 0   0 0 0 0 0  0 0 0 0.5 0" type="matrix" in="shadowBlurOuter1"></feColorMatrix>
        </filter>
    </defs>
    <g id="页面-1" stroke="none" stroke-width="1" fill="none" fill-rule="evenodd">
        <g id="3-1-1-分析系统-运营分析-DCloud运营指标-用户属性备份" transform="translate(-667.000000, -22.000000)" fill-rule="nonzero">
            <g id="编组-9">
                <g id="CHY备份">
                    <use fill="black" fill-opacity="1" filter="url(#filter-4)" xlink:href="#path-3"></use>
                    <use stroke="url(#linearGradient-2)" stroke-width="1" fill="url(#linearGradient-1)" xlink:href="#path-3"></use>
                </g>
            </g>
        </g>
    </g>
</svg>