<?xml version="1.0" encoding="UTF-8"?>
<svg width="48px" height="23px" viewBox="0 0 48 23" version="1.1" xmlns="http://www.w3.org/2000/svg" xmlns:xlink="http://www.w3.org/1999/xlink">
    <!-- Generator: Sketch 56.3 (81716) - https://sketch.com -->
    <title>CHY</title>
    <desc>Created with Sketch.</desc>
    <defs>
        <path d="M612.042,34.22 C611.79,35.12 611.304,35.984 610.656,36.65 C609.792,37.532 608.622,38.072 607.398,38.18 C606.21,38.288 604.77,38.09 603.708,37.55 C602.682,37.028 601.89,36.182 601.386,35.156 C600.54,33.446 600.504,31.304 600.882,29.396 C601.098,28.316 601.746,27.236 602.628,26.426 C603.51,25.616 604.41,25.202 605.562,25.004 C606.93,24.788 608.352,24.968 609.54,25.598 C610.53,26.12 611.484,27.11 611.97,28.208 C612.078,28.46 612.006,28.694 611.88,28.892 C611.7,29.144 611.376,29.342 611.07,29.432 C610.818,28.55 610.188,27.632 609.378,27.002 C608.514,26.318 607.488,26.084 606.336,26.138 C605.31,26.174 604.32,26.57 603.564,27.218 C602.808,27.866 602.358,28.748 602.124,29.738 C601.764,31.268 601.944,32.978 602.466,34.364 C602.772,35.21 603.42,35.876 604.194,36.326 C605.076,36.83 606.102,37.046 607.11,36.956 C608.136,36.866 609.072,36.452 609.774,35.678 C610.458,34.94 610.854,33.95 611.034,32.996 C611.376,33.086 611.664,33.23 611.862,33.428 C612.042,33.626 612.132,33.878 612.042,34.22 Z M625.634,37.226 C625.634,37.55 625.418,37.766 625.166,37.892 C624.896,38.036 624.554,38.054 624.32,38.018 C624.446,35.84 624.446,33.752 624.32,31.592 C621.818,31.52 619.262,31.61 616.958,32.168 C616.922,33.914 616.886,36.236 616.922,38.018 C616.652,38.018 616.292,37.946 616.022,37.784 C615.806,37.64 615.626,37.442 615.626,37.172 C615.554,33.392 615.878,28.946 616.238,25.076 C616.526,25.094 617.102,25.094 617.48,25.094 C617.3,27.038 617.138,29.126 617.03,30.98 C619.298,30.512 621.764,30.404 624.23,30.404 C624.122,28.73 623.96,26.894 623.726,25.076 L624.968,25.076 C625.418,28.748 625.724,33.194 625.634,37.226 Z M640.108,25.796 C638.2,27.794 636.382,29.882 635.176,32.204 C635.176,33.734 635.194,36.56 635.194,37.982 C634.762,38 634.24,38 633.898,38.018 C633.898,36.416 633.88,33.77 633.88,32.258 C632.782,29.864 630.982,27.74 629.038,25.76 C629.326,25.58 629.866,25.202 630.172,25.004 C631.864,26.786 633.466,28.64 634.51,30.71 C635.788,28.676 637.3,26.75 639.064,24.932 C639.406,25.202 639.802,25.544 640.108,25.796 Z" id="path-1"></path>
        <filter x="-19.0%" y="-41.4%" width="136.7%" height="212.8%" filterUnits="objectBoundingBox" id="filter-2">
            <feMorphology radius="0.5" operator="dilate" in="SourceAlpha" result="shadowSpreadOuter1"></feMorphology>
            <feOffset dx="0" dy="2" in="shadowSpreadOuter1" result="shadowOffsetOuter1"></feOffset>
            <feGaussianBlur stdDeviation="2" in="shadowOffsetOuter1" result="shadowBlurOuter1"></feGaussianBlur>
            <feComposite in="shadowBlurOuter1" in2="SourceAlpha" operator="out" result="shadowBlurOuter1"></feComposite>
            <feColorMatrix values="0 0 0 0 0   0 0 0 0 0   0 0 0 0 0  0 0 0 0.5 0" type="matrix" in="shadowBlurOuter1"></feColorMatrix>
        </filter>
    </defs>
    <g id="页面-1" stroke="none" stroke-width="1" fill="none" fill-rule="evenodd">
        <g id="3-1-1-分析系统-运营分析-DCloud运营指标-用户属性备份" transform="translate(-596.000000, -22.000000)" fill-rule="nonzero">
            <g id="编组-9">
                <g id="CHY">
                    <use fill="black" fill-opacity="1" filter="url(#filter-2)" xlink:href="#path-1"></use>
                    <use stroke="#FFFFFF" stroke-width="1" fill="#FFFFFF" xlink:href="#path-1"></use>
                </g>
            </g>
        </g>
    </g>
</svg>